<svg id="Layer_1" data-name="Layer 1" xmlns="http://www.w3.org/2000/svg" viewBox="0 0 820.9 263.38"><defs><style>.cls-1{fill:#00ff6c;}.cls-2,.cls-3{fill:#0d6bc9;}.cls-3{font-size:108.68px;font-family:CenturyGothic-BoldItalic, Century Gothic;font-weight:700;font-style:italic;letter-spacing:0.01em;}</style></defs><title>hello2travel</title><rect class="cls-1" x="286.71" y="292.7" width="201.16" height="182.48" transform="translate(-400.91 27.33) rotate(-33.72)"/><path class="cls-2" d="M414.22,452.83c.36-1.09.82-20,1.2-38.59l6.79-4.55a4.59,4.59,0,1,0-5.09-7.59l-1.49,1c.26-14,1.1-24.59,1.1-24.59s16.34-10,32.81-20.7,5.47-27.16-10.74-16-31.65,22.43-31.65,22.43S397.07,361,384,355.86l1.49-1a4.59,4.59,0,1,0-5.08-7.59l-6.8,4.55c-17.35-6.73-35-13.5-36.17-13.58-2.29-.16-11.81,2.35-11.89,3.63,0,.62,11.17,6.86,22.9,13.43l-1.53,1a.82.82,0,1,0,.91,1.36l2.23-1.48,3.28,1.84-.91.61a.82.82,0,1,0,.91,1.36l1.6-1.07c2.2,1.25,4.36,2.47,6.38,3.63l-1.6,1.07a.82.82,0,1,0,.91,1.36l2.27-1.51c2.19,1.26,4.18,2.44,5.9,3.48l-1.44.95a.88.88,0,0,0-.29,1.19.86.86,0,0,0,1.21.18l2.05-1.38a21.5,21.5,0,0,1,4.39,3.17l7,10.43s-26.81,18.91-32.82,24.34c-2.24,2-5.41,5.13-8.46,8.28-6.57-2.5-16.58-6.26-18.58-6.79-3-.8-5.43-1.44-6.62-.74s-4,1.64-3.12,2.47c.71.68,14.9,10.94,19.86,14.52-.77,1-1.17,1.75-1,2s1,.13,2.22-.19c1.42,5.95,5.51,23,5.87,23.88.44,1.12,2.37-1.12,3.47-1.95s1.43-3.3,1.84-6.4c.27-2,.6-12.72.79-19.74,4.08-1.62,8.15-3.37,10.88-4.67,7.32-3.48,35-21.05,35-21.05l7,10.42a22.61,22.61,0,0,1,1.26,5.27l-2.06,1.37a.87.87,0,0,0-.29,1.19.88.88,0,0,0,1.21.18l1.43-1c.31,2,.64,4.27,1,6.77l-2.27,1.52a.82.82,0,1,0,.92,1.36l1.6-1.07c.3,2.31.62,4.76.93,7.27l-1.6,1.07a.87.87,0,0,0-.3,1.19.88.88,0,0,0,1.21.18l.91-.62c.16,1.25.31,2.49.46,3.74l-2.22,1.49a.82.82,0,1,0,.91,1.36l1.53-1c1.63,13.34,3.12,26.07,3.72,26.27C407.54,462.85,413.49,455,414.22,452.83Z" transform="translate(-252.94 -252.25)"/><text class="cls-3" transform="translate(268.58 179.64) scale(0.86 1)">Hello2Travel</text></svg>